<svg width="78" height="78" viewBox="0 0 78 78" fill="none" xmlns="http://www.w3.org/2000/svg">
<g filter="url(#filter0_d_14768_36371)">
<rect x="19" y="15" width="40" height="40" rx="20" fill="#17A2B8" shape-rendering="crispEdges"/>
<rect x="28" y="29.5" width="20" height="14" rx="2" fill="white"/>
<path d="M30.5 33.5L38 40L45.5 33.5" stroke="#17A2B8" stroke-linecap="round"/>
<line x1="41.7071" y1="37.5" x2="45" y2="40.7929" stroke="#17A2B8" stroke-linecap="round"/>
<line x1="31" y1="40.7929" x2="34.2929" y2="37.5" stroke="#17A2B8" stroke-linecap="round"/>
<circle cx="47" cy="29.5" r="2.75" fill="white" stroke="#17A2B8" stroke-width="0.5"/>
<path d="M47.2393 30.5H46.7866V29.2607C46.7866 29.2266 46.7871 29.1846 46.7881 29.1348C46.7891 29.084 46.7905 29.0322 46.7925 28.9795C46.7944 28.9258 46.7964 28.8774 46.7983 28.8345C46.7876 28.8472 46.7656 28.8691 46.7324 28.9004C46.7002 28.9307 46.6699 28.958 46.6416 28.9824L46.3955 29.1802L46.1772 28.9077L46.8672 28.3584H47.2393V30.5Z" fill="#17A2B8"/>
<rect x="17.5" y="13.5" width="43" height="43" rx="21.5" stroke="white" stroke-width="3" shape-rendering="crispEdges"/>
</g>
<defs>
<filter id="filter0_d_14768_36371" x="0" y="0" width="78" height="78" filterUnits="userSpaceOnUse" color-interpolation-filters="sRGB">
<feFlood flood-opacity="0" result="BackgroundImageFix"/>
<feColorMatrix in="SourceAlpha" type="matrix" values="0 0 0 0 0 0 0 0 0 0 0 0 0 0 0 0 0 0 127 0" result="hardAlpha"/>
<feOffset dy="4"/>
<feGaussianBlur stdDeviation="8"/>
<feComposite in2="hardAlpha" operator="out"/>
<feColorMatrix type="matrix" values="0 0 0 0 0 0 0 0 0 0 0 0 0 0 0 0 0 0 0.24 0"/>
<feBlend mode="normal" in2="BackgroundImageFix" result="effect1_dropShadow_14768_36371"/>
<feBlend mode="normal" in="SourceGraphic" in2="effect1_dropShadow_14768_36371" result="shape"/>
</filter>
</defs>
</svg>
