<svg width="74" height="93" viewBox="0 0 74 93" fill="none" xmlns="http://www.w3.org/2000/svg">
<g filter="url(#filter0_d_14768_36776)">
<g filter="url(#filter1_d_14768_36776)">
<rect x="17" y="32" width="40" height="40" rx="20" fill="#17A2B8" shape-rendering="crispEdges"/>
<rect x="28.5" y="46.5" width="20" height="14" rx="2" fill="white"/>
<path d="M31 50.5L38.5 57L46 50.5" stroke="#17A2B8" stroke-linecap="round"/>
<line x1="42.2071" y1="54.5" x2="45.5" y2="57.7929" stroke="#17A2B8" stroke-linecap="round"/>
<line x1="31.5" y1="57.7929" x2="34.7929" y2="54.5" stroke="#17A2B8" stroke-linecap="round"/>
<circle cx="28.5" cy="46.5" r="2.75" fill="white" stroke="#17A2B8" stroke-width="0.5"/>
<path d="M28.7393 47.5H28.2866V46.2607C28.2866 46.2266 28.2871 46.1846 28.2881 46.1348C28.2891 46.084 28.2905 46.0322 28.2925 45.9795C28.2944 45.9258 28.2964 45.8774 28.2983 45.8345C28.2876 45.8472 28.2656 45.8691 28.2324 45.9004C28.2002 45.9307 28.1699 45.958 28.1416 45.9824L27.8955 46.1802L27.6772 45.9077L28.3672 45.3584H28.7393V47.5Z" fill="#17A2B8"/>
<rect x="17" y="32" width="40" height="40" rx="20" stroke="white" stroke-width="2" shape-rendering="crispEdges"/>
</g>
<rect x="31" y="8.9032" width="27.0968" height="27.0968" rx="13.5484" fill="#22C55E"/>
<path fill-rule="evenodd" clip-rule="evenodd" d="M47.9856 23.9403C47.7984 23.8472 46.8809 23.3984 46.7101 23.3359C46.5393 23.2741 46.4149 23.2434 46.29 23.4297C46.1656 23.6147 45.8083 24.0334 45.6996 24.1572C45.5904 24.2815 45.4817 24.2965 45.2952 24.204C45.1087 24.1103 44.507 23.9147 43.7943 23.2822C43.2397 22.7897 42.8648 22.1816 42.7562 21.9953C42.6475 21.8097 42.7442 21.7091 42.8378 21.6166C42.922 21.5334 43.0243 21.3997 43.1179 21.2916C43.2115 21.1828 43.2422 21.1053 43.3044 20.9809C43.3672 20.8572 43.3358 20.7491 43.2887 20.6559C43.2422 20.5628 42.8692 19.6484 42.7135 19.2766C42.5621 18.9147 42.4082 18.9641 42.2939 18.9578C42.1847 18.9528 42.0603 18.9516 41.936 18.9516C41.8116 18.9516 41.6094 18.9978 41.4386 19.1841C41.2672 19.3697 40.7855 19.8191 40.7855 20.7334C40.7855 21.6472 41.4537 22.5303 41.5472 22.6547C41.6408 22.7784 42.8629 24.6547 44.735 25.459C45.1809 25.6503 45.5282 25.7647 45.7989 25.8497C46.246 25.9915 46.653 25.9715 46.9745 25.9234C47.3325 25.8703 48.0785 25.474 48.2343 25.0403C48.3894 24.6065 48.3894 24.2347 48.3429 24.1572C48.2964 24.0797 48.1721 24.0334 47.985 23.9403H47.9856ZM44.5805 28.5672H44.578C43.4661 28.5674 42.3746 28.2699 41.4179 27.7059L41.1918 27.5722L38.8418 28.1859L39.4692 25.9059L39.3216 25.6722C38.6999 24.6874 38.371 23.5477 38.3727 22.3847C38.3739 18.9784 41.1585 16.2072 44.583 16.2072C46.241 16.2072 47.7997 16.8509 48.9716 18.0184C49.5496 18.5913 50.0077 19.2725 50.3194 20.0227C50.6312 20.7729 50.7904 21.5772 50.7878 22.3891C50.7865 25.7953 48.0019 28.5672 44.5805 28.5672V28.5672ZM49.8633 17.1316C49.1714 16.4384 48.3481 15.8888 47.4412 15.5146C46.5342 15.1404 45.5617 14.949 44.5799 14.9516C40.4639 14.9516 37.1129 18.2859 37.1116 22.3841C37.111 23.694 37.4545 24.9728 38.1083 26.0997L37.0488 29.9515L41.0078 28.9178C42.103 29.5116 43.3302 29.8228 44.5774 29.8228H44.5805C48.6965 29.8228 52.0475 26.4884 52.0488 22.3897C52.0518 21.413 51.8602 20.4454 51.4851 19.5428C51.11 18.6403 50.5588 17.8207 49.8633 17.1316" fill="white"/>
<rect x="31" y="8.9032" width="27.0968" height="27.0968" rx="13.5484" stroke="white" stroke-width="2"/>
<circle cx="54.4839" cy="12.5161" r="4.51613" fill="#DF5A53"/>
<path d="M55.1562 14.8064H54.251V12.3279C54.251 12.2595 54.252 12.1755 54.2539 12.0759C54.2559 11.9744 54.2588 11.8708 54.2627 11.7654C54.2666 11.658 54.2705 11.5613 54.2744 11.4753C54.2529 11.5007 54.209 11.5447 54.1426 11.6072C54.0781 11.6677 54.0176 11.7224 53.9609 11.7712L53.4688 12.1667L53.0322 11.6218L54.4121 10.5232H55.1562V14.8064Z" fill="white"/>
</g>
<defs>
<filter id="filter0_d_14768_36776" x="5" y="0.903198" width="65.0967" height="87.0968" filterUnits="userSpaceOnUse" color-interpolation-filters="sRGB">
<feFlood flood-opacity="0" result="BackgroundImageFix"/>
<feColorMatrix in="SourceAlpha" type="matrix" values="0 0 0 0 0 0 0 0 0 0 0 0 0 0 0 0 0 0 127 0" result="hardAlpha"/>
<feOffset dy="4"/>
<feGaussianBlur stdDeviation="5.5"/>
<feComposite in2="hardAlpha" operator="out"/>
<feColorMatrix type="matrix" values="0 0 0 0 0 0 0 0 0 0 0 0 0 0 0 0 0 0 0.25 0"/>
<feBlend mode="normal" in2="BackgroundImageFix" result="effect1_dropShadow_14768_36776"/>
<feBlend mode="normal" in="SourceGraphic" in2="effect1_dropShadow_14768_36776" result="shape"/>
</filter>
<filter id="filter1_d_14768_36776" x="0" y="19" width="74" height="74" filterUnits="userSpaceOnUse" color-interpolation-filters="sRGB">
<feFlood flood-opacity="0" result="BackgroundImageFix"/>
<feColorMatrix in="SourceAlpha" type="matrix" values="0 0 0 0 0 0 0 0 0 0 0 0 0 0 0 0 0 0 127 0" result="hardAlpha"/>
<feOffset dy="4"/>
<feGaussianBlur stdDeviation="8"/>
<feComposite in2="hardAlpha" operator="out"/>
<feColorMatrix type="matrix" values="0 0 0 0 0 0 0 0 0 0 0 0 0 0 0 0 0 0 0.08 0"/>
<feBlend mode="normal" in2="BackgroundImageFix" result="effect1_dropShadow_14768_36776"/>
<feBlend mode="normal" in="SourceGraphic" in2="effect1_dropShadow_14768_36776" result="shape"/>
</filter>
</defs>
</svg>
