<svg width="77" height="78" viewBox="0 0 77 78" fill="none" xmlns="http://www.w3.org/2000/svg">
<g filter="url(#filter0_d_14768_36370)">
<rect x="19" y="15" width="39" height="40" rx="19.5" fill="#22C55E" shape-rendering="crispEdges"/>
<path fill-rule="evenodd" clip-rule="evenodd" d="M41.9368 36.4888C41.7496 36.3956 40.8321 35.9469 40.6613 35.8844C40.4905 35.8225 40.3661 35.7919 40.2411 35.9781C40.1168 36.1631 39.7595 36.5819 39.6508 36.7056C39.5415 36.83 39.4329 36.845 39.2464 36.7525C39.0599 36.6588 38.4582 36.4631 37.7454 35.8306C37.1909 35.3381 36.816 34.73 36.7073 34.5438C36.5987 34.3581 36.6954 34.2575 36.789 34.165C36.8731 34.0819 36.9755 33.9481 37.0691 33.84C37.1626 33.7313 37.1934 33.6538 37.2556 33.5294C37.3184 33.4056 37.287 33.2975 37.2399 33.2044C37.1934 33.1113 36.8204 32.1969 36.6646 31.825C36.5133 31.4631 36.3594 31.5125 36.2451 31.5063C36.1358 31.5013 36.0115 31.5 35.8872 31.5C35.7628 31.5 35.5606 31.5463 35.3898 31.7325C35.2183 31.9181 34.7366 32.3675 34.7366 33.2819C34.7366 34.1956 35.4048 35.0788 35.4984 35.2031C35.592 35.3269 36.8141 37.2031 38.6862 38.0075C39.1321 38.1988 39.4794 38.3131 39.75 38.3981C40.1972 38.54 40.6041 38.52 40.9257 38.4719C41.2836 38.4188 42.0297 38.0225 42.1854 37.5888C42.3406 37.155 42.3406 36.7831 42.2941 36.7056C42.2476 36.6281 42.1233 36.5819 41.9361 36.4888H41.9368ZM38.5317 41.1156H38.5292C37.4173 41.1158 36.3257 40.8184 35.369 40.2544L35.143 40.1206L32.793 40.7344L33.4203 38.4544L33.2728 38.2206C32.6511 37.2359 32.3221 36.0961 32.3238 34.9331C32.3251 31.5269 35.1097 28.7556 38.5342 28.7556C40.1921 28.7556 41.7509 29.3994 42.9227 30.5669C43.5007 31.1398 43.9589 31.821 44.2706 32.5712C44.5823 33.3214 44.7415 34.1257 44.7389 34.9375C44.7377 38.3438 41.9531 41.1156 38.5317 41.1156ZM43.8145 29.68C43.1226 28.9869 42.2993 28.4372 41.3923 28.063C40.4854 27.6888 39.5129 27.4975 38.5311 27.5C34.4151 27.5 31.0641 30.8344 31.0628 34.9325C31.0622 36.2425 31.4057 37.5213 32.0594 38.6481L31 42.5L34.959 41.4663C36.0541 42.0601 37.2814 42.3712 38.5286 42.3713H38.5317C42.6477 42.3713 45.9987 39.0369 46 34.9381C46.003 33.9614 45.8114 32.9938 45.4363 32.0913C45.0612 31.1887 44.5099 30.3692 43.8145 29.68Z" fill="white"/>
<rect x="17.5" y="13.5" width="42" height="43" rx="21" stroke="white" stroke-width="3" shape-rendering="crispEdges"/>
</g>
<defs>
<filter id="filter0_d_14768_36370" x="0" y="0" width="77" height="78" filterUnits="userSpaceOnUse" color-interpolation-filters="sRGB">
<feFlood flood-opacity="0" result="BackgroundImageFix"/>
<feColorMatrix in="SourceAlpha" type="matrix" values="0 0 0 0 0 0 0 0 0 0 0 0 0 0 0 0 0 0 127 0" result="hardAlpha"/>
<feOffset dy="4"/>
<feGaussianBlur stdDeviation="8"/>
<feComposite in2="hardAlpha" operator="out"/>
<feColorMatrix type="matrix" values="0 0 0 0 0 0 0 0 0 0 0 0 0 0 0 0 0 0 0.24 0"/>
<feBlend mode="normal" in2="BackgroundImageFix" result="effect1_dropShadow_14768_36370"/>
<feBlend mode="normal" in="SourceGraphic" in2="effect1_dropShadow_14768_36370" result="shape"/>
</filter>
</defs>
</svg>
